name C:\Users\r0593348\3dpredictsim\Results\Batchsim_tmt_linear\Pog_s1_tmt_aCst_d02_k500_ig24_pas.mot
datacolumns 128
datarows 4
range 1.11189109 1.14524782
endheader
time	pelvis_tilt	pelvis_list	pelvis_rotation	pelvis_tx	pelvis_ty	pelvis_tz	hip_flexion_l	hip_adduction_l	hip_rotation_l	hip_flexion_r	hip_adduction_r	hip_rotation_r	knee_angle_l	knee_angle_r	ankle_angle_l	ankle_angle_r	subtalar_angle_l	subtalar_angle_r	tmt_angle_l	tmt_angle_r	mtp_angle_l	mtp_angle_r	lumbar_extension	lumbar_bending	lumbar_rotation	arm_flex_l	arm_add_l	arm_rot_l	arm_flex_r	arm_add_r	arm_rot_r	elbow_flex_l	elbow_flex_r	pro_sup_l	pro_sup_r	glut_med1_l/activation	glut_med2_l/activation	glut_med3_l/activation	glut_min1_l/activation	glut_min2_l/activation	glut_min3_l/activation	semimem_l/activation	semiten_l/activation	bifemlh_l/activation	bifemsh_l/activation	sar_l/activation	add_long_l/activation	add_brev_l/activation	add_mag1_l/activation	add_mag2_l/activation	add_mag3_l/activation	tfl_l/activation	pect_l/activation	grac_l/activation	glut_max1_l/activation	glut_max2_l/activation	glut_max3_l/activation	iliacus_l/activation	psoas_l/activation	quad_fem_l/activation	gem_l/activation	peri_l/activation	rect_fem_l/activation	vas_med_l/activation	vas_int_l/activation	vas_lat_l/activation	med_gas_l/activation	lat_gas_l/activation	soleus_l/activation	tib_post_l/activation	flex_dig_l/activation	flex_hal_l/activation	tib_ant_l/activation	per_brev_l/activation	per_long_l/activation	per_tert_l/activation	ext_dig_l/activation	ext_hal_l/activation	ercspn_l/activation	intobl_l/activation	extobl_l/activation	glut_med1_r/activation	glut_med2_r/activation	glut_med3_r/activation	glut_min1_r/activation	glut_min2_r/activation	glut_min3_r/activation	semimem_r/activation	semiten_r/activation	bifemlh_r/activation	bifemsh_r/activation	sar_r/activation	add_long_r/activation	add_brev_r/activation	add_mag1_r/activation	add_mag2_r/activation	add_mag3_r/activation	tfl_r/activation	pect_r/activation	grac_r/activation	glut_max1_r/activation	glut_max2_r/activation	glut_max3_r/activation	iliacus_r/activation	psoas_r/activation	quad_fem_r/activation	gem_r/activation	peri_r/activation	rect_fem_r/activation	vas_med_r/activation	vas_int_r/activation	vas_lat_r/activation	med_gas_r/activation	lat_gas_r/activation	soleus_r/activation	tib_post_r/activation	flex_dig_r/activation	flex_hal_r/activation	tib_ant_r/activation	per_brev_r/activation	per_long_r/activation	per_tert_r/activation	ext_dig_r/activation	ext_hal_r/activation	ercspn_r/activation	intobl_r/activation	extobl_r/activation	
          1.11189109	         -2.92268023	         -2.46381767	          6.40516313	          1.38986386	          0.85463027	         -0.00343256	        -18.47797457	         -2.26802211	          7.83046853	         32.05208248	          3.24536981	         -3.04700008	         -8.56396816	        -15.34077436	         -0.18513122	          6.43008506	         11.71882877	         -3.20759906	          2.00849648	          0.06660000	         22.22170757	         -0.09656128	         -2.14859634	          1.01195954	         -2.07770217	          7.72441849	        -13.46882322	         17.17133793	        -10.73505201	        -13.55531073	          5.83273911	         41.56466470	         14.55950572	         86.51662706	         86.51662706	          0.24452796	          0.08766677	          0.05596453	          0.29373203	          0.19602809	          0.09629012	          0.05000480	          0.05000042	          0.05000032	          0.07178236	          0.09981297	          0.11380544	          0.15097849	          0.05001280	          0.05000755	          0.05000146	          0.30945038	          0.10082579	          0.05000704	          0.05000252	          0.05000167	          0.05000161	          0.36596681	          0.59706336	          0.05000045	          0.05000123	          0.05000037	          0.21929078	          0.09597593	          0.06709030	          0.10656602	          0.28810001	          0.38955849	          0.26991530	          0.24850977	          0.27280228	          0.34346546	          0.05000004	          0.06070078	          0.15192568	          0.05000019	          0.05000006	          0.05000022	          0.05024000	          0.05000186	          0.05016668	          0.05926571	          0.05926573	          0.05000019	          0.05926592	          0.05926588	          0.05926447	          0.05926513	          0.05000746	          0.29141640	          0.05000086	          0.05000084	          0.12187765	          0.28707948	          0.11542030	          0.13518985	          0.12424873	          0.05000028	          0.07150132	          0.10447472	          0.05000040	          0.05000034	          0.14611130	          0.05926782	          0.06388409	          0.38918401	          0.22240691	          0.12966887	          0.05462311	          0.16810326	          0.17221876	          0.14853832	          0.05178595	          0.05002394	          0.05739506	          0.05000003	          0.05000069	          0.05000068	          0.60921123	          0.35402879	          0.20343798	          0.35980567	          0.58101452	          0.32660446	          0.05926583	          0.08867547	          0.08809573	
          1.12301000	         -2.91083075	         -2.57792054	          6.65656043	          1.40703239	          0.85350711	         -0.00319443	        -18.15634426	         -2.59012811	          7.62021987	         31.41105512	          3.66306040	         -2.82082006	        -10.88730367	        -15.68391846	         -1.20818359	          5.75450757	         12.79907091	         -3.70535881	          1.88630468	          0.04736572	         23.30033605	         -0.07091356	         -1.91975042	          1.26625569	         -2.16636355	          7.45209406	        -13.48727855	         17.35532820	        -11.89966619	        -13.54696711	          5.71007325	         42.77912982	         14.49021793	         86.51662706	         86.51662706	          0.20629793	          0.07396077	          0.05926555	          0.24780938	          0.16538066	          0.08123596	          0.05000543	          0.05000072	          0.05000188	          0.06055975	          0.08420817	          0.20773479	          0.23665671	          0.15430585	          0.05926985	          0.05927752	          0.26107041	          0.08506404	          0.05000223	          0.05032207	          0.05926125	          0.05926594	          0.30875070	          0.54148266	          0.05926573	          0.05926577	          0.05000647	          0.18500636	          0.13866685	          0.13866699	          0.13866675	          0.24305773	          0.32865395	          0.22771606	          0.20965722	          0.23015202	          0.28976743	          0.05000002	          0.05121079	          0.13753878	          0.05000013	          0.05000005	          0.05000016	          0.06631747	          0.05926618	          0.05000039	          0.05000003	          0.05000014	          0.12608929	          0.05000018	          0.05000019	          0.05000019	          0.05000014	          0.05000021	          0.24585569	          0.05000013	          0.05000213	          0.10282318	          0.24219735	          0.35982124	          0.24094679	          0.13427778	          0.05000140	          0.06033076	          0.08815844	          0.09173198	          0.11484321	          0.13361876	          0.05000185	          0.05926550	          0.49289463	          0.18763535	          0.10939622	          0.05926659	          0.20691215	          0.22229882	          0.18562100	          0.05000018	          0.05000064	          0.05000003	          0.05926578	          0.07025048	          0.07024855	          0.54247871	          0.39468774	          0.24259310	          0.30355301	          0.57068386	          0.27554242	          0.05000008	          0.07481173	          0.07432263	
          1.13412891	         -2.89477701	         -2.69056241	          6.87342364	          1.42441944	          0.85234481	         -0.00297171	        -17.73125769	         -2.89045314	          7.39059462	         30.57486937	          4.00352717	         -2.54574305	        -13.37272589	        -16.18143004	         -2.40228962	          5.28559544	         13.79558062	         -4.23421898	          1.71762915	         -0.04062977	         24.16415578	         -0.19707151	         -1.67455815	          1.52355014	         -2.24423581	          7.09579273	        -13.50697634	         17.46426879	        -13.03987603	        -13.54520747	          5.66747368	         43.95784113	         14.41695032	         86.51662706	         86.51662706	          0.28838589	          0.06239759	          0.05000007	          0.36792842	          0.13952480	          0.06853541	          0.06714642	          0.05000024	          0.05000017	          0.05109182	          0.07104398	          0.17525722	          0.19965745	          0.13018141	          0.05000385	          0.05001011	          0.29272130	          0.08325324	          0.05000094	          0.05000135	          0.05000082	          0.05000068	          0.26048002	          0.50048106	          0.05000014	          0.05000061	          0.05000017	          0.15608202	          0.11698738	          0.11698749	          0.11698728	          0.20505748	          0.27727138	          0.19211436	          0.17687893	          0.19416966	          0.24446460	          0.05001794	          0.09929985	          0.16765570	          0.05000055	          0.15341016	          0.05000172	          0.08201461	          0.05000037	          0.05000010	          0.27875931	          0.29677548	          0.36701230	          0.39402881	          0.23282839	          0.18739064	          0.07797021	          0.09197396	          0.20741806	          0.08326685	          0.05335090	          0.08674764	          0.20433173	          0.30356609	          0.20327694	          0.15449376	          0.05000045	          0.05090548	          0.09433491	          0.21219872	          0.17764202	          0.11430705	          0.05000122	          0.05000050	          0.41583435	          0.15830025	          0.25065235	          0.05000075	          0.17456314	          0.18754438	          0.15660071	          0.05000127	          0.05000110	          0.05203754	          0.05000008	          0.05926750	          0.05926592	          0.59858266	          0.42129904	          0.20466756	          0.60003230	          0.64157527	          0.31578806	          0.07239224	          0.08828410	          0.06270286	
          1.14524782	         -2.87650956	         -2.79025933	          7.04908832	          1.44178177	          0.85118564	         -0.00271729	        -17.18158141	         -3.15905169	          7.15461167	         29.65824729	          4.32520742	         -2.27305061	        -16.02627632	        -16.62073673	         -3.66206119	          4.98979586	         14.70745517	         -4.78848446	          1.44085661	         -0.04180977	         24.60054137	         -0.19316787	         -1.43676348	          1.76980629	         -2.31131659	          6.70203845	        -13.53556864	         17.52834728	        -14.09703614	        -13.54392458	          5.71327153	         45.06507617	         14.30240003	         86.51662706	         86.51662706	          0.24329900	          0.05264229	          0.05000016	          0.31040572	          0.11771126	          0.05782055	          0.09221286	          0.05000055	          0.05000079	          0.05000013	          0.05993703	          0.20150417	          0.22822429	          0.12652927	          0.05007486	          0.11698908	          0.24695766	          0.07023811	          0.05000086	          0.05000554	          0.05000399	          0.05000322	          0.21975596	          0.43458663	          0.05000031	          0.05000125	          0.05000026	          0.13167978	          0.09869736	          0.09869745	          0.09869727	          0.17299828	          0.23392209	          0.16207872	          0.14922532	          0.16381295	          0.20624462	          0.15671825	          0.13213299	          0.14144575	          0.20950952	          0.24090699	          0.10407875	          0.10998358	          0.05000004	          0.05000006	          0.40813947	          0.45601351	          0.51639083	          0.33242832	          0.25232037	          0.41853874	          0.07924262	          0.12144694	          0.17498984	          0.07024890	          0.05000050	          0.07318540	          0.17238620	          0.25610702	          0.24586148	          0.18384330	          0.05000041	          0.05550255	          0.12927586	          0.29471281	          0.22827182	          0.18187647	          0.05000022	          0.05000020	          0.35082186	          0.13355137	          0.26633755	          0.05000005	          0.22196898	          0.25846753	          0.20413858	          0.05000003	          0.05000007	          0.05000000	          0.05000002	          0.05000162	          0.05000035	          0.72152843	          0.35543213	          0.17266935	          0.63386965	          0.65414736	          0.45137323	          0.09608811	          0.07448155	          0.05289976	
